<svg width="18" height="18" viewBox="0 0 18 18" fill="none" xmlns="http://www.w3.org/2000/svg">
<path d="M9 1C4.58217 1 1 4.58217 1 9C1 13.4178 4.58217 17 9 17C13.4178 17 17 13.4178 17 9C17 4.58217 13.4178 1 9 1Z" stroke="#292826" stroke-miterlimit="10"/>
<path d="M7.78223 7.78223H9.17353V12.8257" stroke="#292826" stroke-linecap="round" stroke-linejoin="round"/>
<path d="M7.25977 13H11.0859" stroke="#292826" stroke-miterlimit="10" stroke-linecap="round"/>
<path d="M8.99958 3.87012C8.776 3.87012 8.55744 3.93642 8.37154 4.06063C8.18564 4.18484 8.04075 4.36139 7.95519 4.56795C7.86963 4.77451 7.84724 5.00181 7.89086 5.22109C7.93448 5.44037 8.04214 5.6418 8.20024 5.79989C8.35833 5.95798 8.55976 6.06565 8.77904 6.10927C8.99832 6.15288 9.22561 6.1305 9.43217 6.04494C9.63873 5.95938 9.81528 5.81449 9.9395 5.62859C10.0637 5.44269 10.13 5.22413 10.13 5.00055C10.13 4.70074 10.0109 4.41321 9.79891 4.20121C9.58692 3.98922 9.29939 3.87012 8.99958 3.87012Z" fill="#292826"/>
</svg>
