<svg width="14" height="14" viewBox="0 0 14 14" fill="none" xmlns="http://www.w3.org/2000/svg">
<path fill-rule="evenodd" clip-rule="evenodd" d="M0.112903 7.1129C0.0564516 7.1129 0 7.05645 0 7C0 6.91532 0.0564516 6.85887 0.112903 6.85887C3.75403 6.85887 6.85887 3.78226 6.85887 0.112903C6.85887 0.0564516 6.91532 0 7 0C7.05645 0 7.1129 0.0564516 7.1129 0.112903C7.1129 3.44355 10.3871 6.85887 13.8589 6.85887C13.9435 6.85887 14 6.91532 14 7C14 7.05645 13.9435 7.1129 13.8589 7.1129C10.2177 7.1129 7.1129 10.246 7.1129 13.8589C7.1129 13.9435 7.05645 14 7 14C6.91532 14 6.85887 13.9435 6.85887 13.8589C6.85887 9.96371 4.03629 7.1129 0.112903 7.1129Z" fill="#6C6D6F"/>
</svg>
