<svg width="21" height="24" viewBox="0 0 21 24" fill="none" xmlns="http://www.w3.org/2000/svg">
<path d="M19.7808 18.8141C19.433 19.6177 19.0213 20.3573 18.5442 21.0374C17.894 21.9644 17.3616 22.6062 16.9513 22.9625C16.3153 23.5474 15.6338 23.847 14.9041 23.864C14.3802 23.864 13.7485 23.7149 13.013 23.4125C12.2752 23.1116 11.5972 22.9625 10.9772 22.9625C10.327 22.9625 9.62959 23.1116 8.88368 23.4125C8.13662 23.7149 7.53481 23.8725 7.07468 23.8881C6.37491 23.918 5.6774 23.6099 4.98118 22.9625C4.53681 22.5749 3.98099 21.9105 3.31515 20.9692C2.60075 19.9641 2.01342 18.7985 1.55329 17.4696C1.06051 16.0343 0.813477 14.6444 0.813477 13.2988C0.813477 11.7574 1.14654 10.428 1.81366 9.31398C2.33796 8.41914 3.03546 7.71326 3.90844 7.19507C4.78142 6.67687 5.72468 6.41281 6.74048 6.39591C7.2963 6.39591 8.02518 6.56784 8.93095 6.90573C9.83417 7.24476 10.4141 7.41668 10.6684 7.41668C10.8585 7.41668 11.5028 7.21565 12.5949 6.81487C13.6278 6.44319 14.4995 6.28929 15.2136 6.34991C17.1487 6.50608 18.6024 7.26889 19.5693 8.64317C17.8386 9.69177 16.9826 11.1605 16.9996 13.0446C17.0152 14.5121 17.5476 15.7333 18.5939 16.703C19.0681 17.153 19.5977 17.5009 20.1868 17.7479C20.0591 18.1185 19.9242 18.4734 19.7808 18.8141ZM15.3428 1.35027C15.3428 2.50053 14.9226 3.57453 14.0849 4.5686C13.0741 5.75037 11.8514 6.43325 10.5256 6.3255C10.5087 6.1875 10.4989 6.04226 10.4989 5.88965C10.4989 4.78539 10.9796 3.60363 11.8333 2.63738C12.2595 2.14814 12.8015 1.74135 13.4588 1.41685C14.1147 1.09719 14.7352 0.92041 15.3187 0.890137C15.3357 1.04391 15.3428 1.19769 15.3428 1.35025V1.35027Z" fill="white"/>
</svg>
