<svg width="12" height="12" viewBox="0 0 12 12" fill="none" xmlns="http://www.w3.org/2000/svg">
<path fill-rule="evenodd" clip-rule="evenodd" d="M11.4603 10.6644C11.6801 10.8841 11.6801 11.2405 11.4603 11.4603C11.2405 11.6801 10.8841 11.6801 10.6644 11.4603L5.99982 6.79506L1.33529 11.4603C1.1155 11.6801 0.759148 11.6801 0.539356 11.4603C0.319564 11.2405 0.319564 10.8841 0.539356 10.6644L5.20459 5.99982L0.539356 1.33529C0.319564 1.1155 0.319564 0.759148 0.539356 0.539356C0.759148 0.319564 1.1155 0.319564 1.33529 0.539356L5.99982 5.20459L10.6644 0.539356C10.8841 0.319564 11.2405 0.319564 11.4603 0.539356C11.6801 0.759148 11.6801 1.1155 11.4603 1.33529L6.79506 5.99982L11.4603 10.6644Z" fill="#121417"/>
</svg>
