<svg width="14" height="15" viewBox="0 0 14 15" fill="none" xmlns="http://www.w3.org/2000/svg">
<path d="M7.77794 8.23338V0.777778C7.77794 0.348227 7.42972 0 7.00017 0C6.57062 0 6.22239 0.348227 6.22239 0.777778V8.23338L3.66124 5.67226C3.35751 5.3685 2.86505 5.3685 2.56131 5.67226C2.25756 5.97599 2.25756 6.46845 2.56131 6.77219L7.00017 11.211L11.4391 6.77219C11.7427 6.46845 11.7427 5.97599 11.4391 5.67226C11.1353 5.36852 10.6428 5.36852 10.339 5.67226L7.77794 8.23338Z" fill="#BABBC2"/>
<path d="M0.777778 10.1113C1.20733 10.1113 1.55556 10.4596 1.55556 10.8891V12.1336C1.55556 12.7349 2.04307 13.2224 2.64444 13.2224H11.3556C11.9569 13.2224 12.4444 12.7349 12.4444 12.1336V10.8891C12.4444 10.4596 12.7927 10.1113 13.2222 10.1113C13.6517 10.1113 14 10.4596 14 10.8891V12.1336C14 13.5941 12.8161 14.778 11.3556 14.778H2.64444C1.18396 14.778 0 13.5941 0 12.1336V10.8891C0 10.4596 0.348227 10.1113 0.777778 10.1113Z" fill="#BABBC2"/>
</svg>
