<svg width="20" height="21" viewBox="0 0 20 21" fill="none" xmlns="http://www.w3.org/2000/svg">
<path fill-rule="evenodd" clip-rule="evenodd" d="M19.6 11.1172C19.6 10.4081 19.5364 9.72632 19.4182 9.07178H10V12.94H15.3818C15.15 14.19 14.4455 15.249 13.3864 15.9581V18.4672H16.6182C18.5091 16.7263 19.6 14.1627 19.6 11.1172Z" fill="#4285F4"/>
<path fill-rule="evenodd" clip-rule="evenodd" d="M9.99984 20.89C12.6998 20.89 14.9635 19.9946 16.618 18.4673L13.3862 15.9582C12.4908 16.5582 11.3453 16.9128 9.99984 16.9128C7.3953 16.9128 5.19075 15.1537 4.40439 12.79H1.06348V15.3809C2.70893 18.6491 6.09075 20.89 9.99984 20.89Z" fill="#34A853"/>
<path fill-rule="evenodd" clip-rule="evenodd" d="M4.40455 12.7903C4.20455 12.1903 4.09091 11.5494 4.09091 10.8903C4.09091 10.2312 4.20455 9.59032 4.40455 8.99032V6.39941H1.06364C0.386364 7.74941 0 9.27669 0 10.8903C0 12.504 0.386364 14.0312 1.06364 15.3812L4.40455 12.7903Z" fill="#FBBC05"/>
<path fill-rule="evenodd" clip-rule="evenodd" d="M9.99984 4.86741C11.468 4.86741 12.7862 5.37196 13.8226 6.36286L16.6907 3.49468C14.9589 1.88105 12.6953 0.890137 9.99984 0.890137C6.09075 0.890137 2.70893 3.13105 1.06348 6.39923L4.40439 8.99014C5.19075 6.6265 7.39529 4.86741 9.99984 4.86741Z" fill="#EA4335"/>
</svg>
