<svg width="15" height="17" viewBox="0 0 15 17" fill="none" xmlns="http://www.w3.org/2000/svg">
<path d="M9.43759 13.677C9.61395 13.7192 9.79688 13.7264 9.97599 13.6981V14.3931L10.881 13.143C11.096 12.846 11.1844 12.4758 11.1267 12.1138C11.1017 11.9571 11.0503 11.8075 10.976 11.6707V11.306L10.8505 11.4793C10.7725 11.3796 10.6806 11.2901 10.5766 11.2141C10.573 11.2114 10.5662 11.2062 10.5557 11.1982C10.5399 11.1859 10.5155 11.1667 10.4832 11.1406C10.4187 11.0883 10.3226 11.008 10.1999 10.8986C10.0103 10.7297 9.75715 10.4913 9.45859 10.1794C10.8069 8.24823 11.631 6.16165 12.0389 4.95546H12.9736C13.3406 4.95546 13.6926 4.80965 13.9522 4.55011C14.2117 4.29057 14.3575 3.93855 14.3575 3.5715C14.3575 3.20446 14.2117 2.85244 13.9522 2.5929C13.6926 2.33336 13.3406 2.18755 12.9736 2.18755H8.81271V1.88395C8.81271 1.51691 8.6669 1.16489 8.40736 0.905351C8.14782 0.645809 7.79581 0.5 7.42876 0.5C7.06171 0.5 6.7097 0.645809 6.45016 0.905351C6.19061 1.16489 6.0448 1.51691 6.0448 1.88395V2.18755H1.88395C1.51691 2.18755 1.16489 2.33336 0.905351 2.5929C0.645809 2.85244 0.5 3.20446 0.5 3.5715C0.5 3.93855 0.645809 4.29057 0.905351 4.55011C1.16489 4.80965 1.51691 4.95546 1.88395 4.95546H9.08962C8.7531 5.81412 8.26914 6.88415 7.62496 7.92883C6.76017 6.70057 6.40636 5.91897 6.37795 5.8562C6.37723 5.85462 6.37672 5.8535 6.37642 5.85283L6.37645 5.85282L6.37246 5.84359C6.22781 5.5093 5.9572 5.24551 5.61932 5.10944C5.28144 4.97337 4.90353 4.97599 4.56757 5.11673C4.23161 5.25747 3.96468 5.52499 3.82468 5.86126C3.68467 6.19753 3.68288 6.57543 3.8197 6.91301L3.81966 6.91303L3.82214 6.91894C3.85898 7.00659 4.40632 8.28368 5.86614 10.2131C4.42301 11.7762 3.06167 12.7377 2.50549 13.0444C2.18391 13.2203 1.94518 13.5165 1.84175 13.8682C1.73817 14.2203 1.77872 14.5992 1.95448 14.9214C2.13024 15.2437 2.42682 15.4829 2.77896 15.5865C3.13111 15.6901 3.50997 15.6495 3.83222 15.4737L3.83251 15.4736C3.94688 15.4111 5.65978 14.4585 7.68349 12.3241C8.39833 13.0444 8.88125 13.404 8.94834 13.4521C9.09512 13.5584 9.26135 13.6348 9.43759 13.677Z" stroke="#292826"/>
</svg>
