<svg width="17" height="15" viewBox="0 0 17 15" fill="none" xmlns="http://www.w3.org/2000/svg">
<path d="M7 4.25V2.625C7 2.19402 7.15803 1.7807 7.43934 1.47595C7.72064 1.17121 8.10217 1 8.5 1L14.5 1C14.8978 1 15.2794 1.17121 15.5607 1.47595C15.842 1.7807 16 2.19402 16 2.625V12.375C16 12.806 15.842 13.2193 15.5607 13.524C15.2794 13.8288 14.8978 14 14.5 14H8.8C7.97162 14 7 13.2724 7 12.375V10.75" stroke="#292826" stroke-linecap="round" stroke-linejoin="round"/>
<path d="M4.125 3.9248L1 7.0498L4.125 10.1748" stroke="#292826" stroke-linecap="round" stroke-linejoin="round"/>
<path d="M14.1377 6.97021L3.38929 6.97021" stroke="#292826" stroke-linecap="round" stroke-linejoin="round"/>
</svg>
