<svg width="21" height="20" viewBox="0 0 21 20" fill="none" xmlns="http://www.w3.org/2000/svg">
<path d="M10.4999 0C9.18665 0 7.88629 0.258658 6.67303 0.761205C5.45978 1.26375 4.35738 2.00035 3.4288 2.92893C1.55343 4.8043 0.499866 7.34784 0.499866 10C0.491124 12.3091 1.29066 14.5485 2.75987 16.33L0.759866 18.33C0.621108 18.4706 0.527112 18.6492 0.489738 18.8432C0.452364 19.0372 0.473287 19.2379 0.549866 19.42C0.632924 19.5999 0.76757 19.7511 0.936713 19.8544C1.10586 19.9577 1.30187 20.0083 1.49987 20H10.4999C13.152 20 15.6956 18.9464 17.5709 17.0711C19.4463 15.1957 20.4999 12.6522 20.4999 10C20.4999 7.34784 19.4463 4.8043 17.5709 2.92893C15.6956 1.05357 13.152 0 10.4999 0ZM10.4999 18H3.90987L4.83987 17.07C5.02612 16.8826 5.13066 16.6292 5.13066 16.365C5.13066 16.1008 5.02612 15.8474 4.83987 15.66C3.53045 14.352 2.71504 12.6305 2.53256 10.7888C2.35007 8.94705 2.81181 7.09901 3.83909 5.55952C4.86638 4.02004 6.39566 2.88436 8.16638 2.34597C9.93711 1.80759 11.8397 1.8998 13.5501 2.60691C15.2604 3.31402 16.6727 4.59227 17.5463 6.22389C18.4199 7.85551 18.7007 9.73954 18.341 11.555C17.9813 13.3705 17.0032 15.005 15.5734 16.1802C14.1436 17.3554 12.3506 17.9985 10.4999 18Z" fill="#1D2433"/>
</svg>
