<svg width="18" height="20" viewBox="0 0 18 20" fill="none" xmlns="http://www.w3.org/2000/svg">
<path d="M16.7976 15.449C15.6313 13.9524 14.8079 13.1905 14.8079 9.06429C14.8079 5.28571 12.9676 3.93952 11.453 3.28571C11.2518 3.19905 11.0624 3 11.0011 2.78333C10.7354 1.83524 9.99061 1 9.00054 1C8.01047 1 7.2652 1.83571 7.00224 2.78429C6.94093 3.00333 6.75154 3.19905 6.55035 3.28571C5.03391 3.94048 3.19547 5.28191 3.19547 9.06429C3.19319 13.1905 2.3698 13.9524 1.20352 15.449C0.720291 16.069 1.14357 17 1.98876 17H16.0169C16.8575 17 17.2781 16.0662 16.7976 15.449Z" stroke="#292826" stroke-linecap="round" stroke-linejoin="round"/>
<path d="M11.907 16.6797V17.2359C11.907 17.8259 11.6008 18.3918 11.0557 18.809C10.5106 19.2262 9.77126 19.4606 9.00038 19.4606C8.22949 19.4606 7.49018 19.2262 6.94508 18.809C6.39998 18.3918 6.09375 17.8259 6.09375 17.2359V16.6797" stroke="#292826" stroke-linecap="round" stroke-linejoin="round"/>
</svg>
