<svg width="17" height="13" viewBox="0 0 17 13" fill="none" xmlns="http://www.w3.org/2000/svg">
<path opacity="0.5" d="M16.0033 0.00157584C14.3859 0.0918209 11.1712 0.420301 9.18665 1.61467C9.04971 1.69708 8.97208 1.84362 8.97208 1.99683V12.5555C8.97208 12.8907 9.34485 13.1025 9.65918 12.947C11.701 11.9366 14.6539 11.6609 16.114 11.5854C16.6125 11.5596 17 11.1667 17 10.6958V0.89242C17.0003 0.378516 16.547 -0.0286026 16.0033 0.00157584ZM7.81335 1.61467C5.82909 0.420301 2.61439 0.0921111 0.996996 0.00157584C0.453341 -0.0286026 0 0.378516 0 0.89242V10.6961C0 11.1673 0.387524 11.5602 0.886022 11.5857C2.34669 11.6612 5.30108 11.9371 7.34289 12.9481C7.65633 13.1034 8.02792 12.8918 8.02792 12.5575V1.99161C8.02792 1.83811 7.95059 1.69737 7.81335 1.61467Z" fill="#BABBC2"/>
</svg>
