<svg width="18" height="20" viewBox="0 0 18 20" fill="none" xmlns="http://www.w3.org/2000/svg">
<path d="M12.9878 4.86028L12.9879 4.86021C13.0766 3.66064 12.7018 2.56106 11.9501 1.74943C11.2075 0.947683 10.1669 0.5 9.00089 0.5C7.8259 0.5 6.78192 0.946143 6.0445 1.74104L12.9878 4.86028ZM12.9878 4.86028C12.8071 7.30948 10.959 9.19204 9.00089 9.19204C7.04246 9.19204 5.19152 7.30874 5.01356 4.86015L12.9878 4.86028ZM5.01355 4.85999C4.92578 3.64558 5.29966 2.54409 6.04447 1.74107L5.01355 4.85999Z" stroke="#292826"/>
<path d="M16.6215 18.8836H16.6152H1.38482V18.8836L1.37832 18.8837C1.25328 18.8853 1.12945 18.859 1.01584 18.8068L0.809542 19.2553L1.01584 18.8068C0.902233 18.7545 0.8017 18.6776 0.721558 18.5816L0.721241 18.5812C0.543026 18.3682 0.459275 18.0624 0.519096 17.7315L0.519143 17.7312C0.85899 15.846 1.9165 14.2596 3.6005 13.1364C5.10296 12.1352 7.02064 11.5762 9 11.5762C10.9792 11.5762 12.8969 12.1356 14.3994 13.1364C16.0834 14.2591 17.141 15.8455 17.4809 17.7308L17.4809 17.7311C17.5407 18.0619 17.457 18.3678 17.2788 18.5808L17.2783 18.5813C17.1982 18.6774 17.0977 18.7544 16.9841 18.8067C16.8704 18.859 16.7466 18.8853 16.6215 18.8837V18.8836Z" stroke="#292826"/>
</svg>
