<svg width="16" height="22" viewBox="0 0 16 22" fill="none" xmlns="http://www.w3.org/2000/svg">
<path d="M11.5 8.75147V4.59522C11.5 3.66696 11.1313 2.77672 10.4749 2.12034C9.8185 1.46396 8.92826 1.09521 8 1.09521C7.07174 1.09521 6.1815 1.46396 5.52513 2.12034C4.86875 2.77672 4.5 3.66696 4.5 4.59522V8.75147" stroke="#292826" stroke-linecap="round" stroke-linejoin="round"/>
<path d="M12.9 8.75146H3.1C1.9402 8.75146 1 9.69167 1 10.8515V18.5515C1 19.7113 1.9402 20.6515 3.1 20.6515H12.9C14.0598 20.6515 15 19.7113 15 18.5515V10.8515C15 9.69167 14.0598 8.75146 12.9 8.75146Z" stroke="#292826" stroke-linecap="round" stroke-linejoin="round"/>
</svg>
