<svg width="14" height="16" viewBox="0 0 14 16" fill="none" xmlns="http://www.w3.org/2000/svg">
<path d="M11.0831 0.124023H2.91669C1.85946 0.124023 1.00116 0.982296 1.00116 2.03956L1 14.4268C1 15.0017 1.32271 15.5049 1.84441 15.742C2.36609 15.9815 2.95833 15.8959 3.39327 15.5234L7 12.413L10.6067 15.5222C10.8763 15.7559 11.2082 15.875 11.5483 15.875C11.753 15.875 11.9601 15.831 12.1556 15.742C12.6773 15.5025 13 14.9982 13 14.4268V2.04072C13 0.98579 12.1403 0.124023 11.0831 0.124023ZM11.8153 14.4269C11.8153 14.5749 11.7204 14.6397 11.6614 14.6663C11.6048 14.6929 11.4926 14.723 11.3804 14.6282L7.38749 11.1846C7.1654 10.9926 6.83689 10.9926 6.6148 11.1846L2.62074 14.6258C2.50854 14.7206 2.39518 14.6906 2.33965 14.664C2.28297 14.6374 2.18581 14.5726 2.18581 14.4245L2.18465 2.0408C2.18465 1.63826 2.51317 1.30974 2.91571 1.30974H11.0821C11.4846 1.30974 11.8132 1.63826 11.8132 2.0408L11.8153 14.4269Z" fill="black" stroke="black" stroke-width="0.25"/>
</svg>
