<svg width="24" height="24" viewBox="0 0 24 24" fill="none" xmlns="http://www.w3.org/2000/svg">
<g clip-path="url(#clip0_3_449)">
<path fill-rule="evenodd" clip-rule="evenodd" d="M21.5306 19.4694L16.8366 14.7762C19.6629 11.383 19.3204 6.36693 16.0591 3.38935C12.7978 0.411763 7.77134 0.525999 4.64867 3.64867C1.526 6.77134 1.41176 11.7978 4.38935 15.0591C7.36693 18.3204 12.383 18.6629 15.7762 15.8366L20.4694 20.5306C20.7624 20.8237 21.2376 20.8237 21.5306 20.5306C21.8237 20.2376 21.8237 19.7624 21.5306 19.4694ZM3.75 9.5C3.75 5.77208 6.77208 2.75 10.5 2.75C14.2279 2.75 17.25 5.77208 17.25 9.5C17.25 13.2279 14.2279 16.25 10.5 16.25C6.77379 16.2459 3.75413 13.2262 3.75 9.5Z" fill="#121417"/>
</g>
<defs>
<clipPath id="clip0_3_449">
<rect width="24" height="24" fill="white"/>
</clipPath>
</defs>
</svg>
