<svg width="22" height="22" viewBox="0 0 22 22" fill="none" xmlns="http://www.w3.org/2000/svg">
<path d="M11 0C8.82441 0 6.69767 0.645138 4.88873 1.85383C3.07979 3.06253 1.66989 4.78049 0.83733 6.79048C0.00476612 8.80047 -0.213071 11.0122 0.211367 13.146C0.635804 15.2798 1.68345 17.2398 3.22183 18.7782C4.76021 20.3165 6.72022 21.3642 8.85401 21.7886C10.9878 22.2131 13.1995 21.9952 15.2095 21.1627C17.2195 20.3301 18.9375 18.9202 20.1462 17.1113C21.3549 15.3023 22 13.1756 22 11C22 8.08262 20.8411 5.28472 18.7782 3.22182C16.7153 1.15892 13.9174 0 11 0ZM11 19.871C9.24549 19.871 7.53038 19.3507 6.07156 18.3759C4.61274 17.4012 3.47572 16.0157 2.8043 14.3948C2.13288 12.7738 1.9572 10.9902 2.29949 9.26936C2.64178 7.54856 3.48666 5.9679 4.72728 4.72728C5.96791 3.48665 7.54856 2.64177 9.26936 2.29948C10.9902 1.9572 12.7738 2.13287 14.3948 2.80429C16.0157 3.47572 17.4012 4.61273 18.3759 6.07155C19.3507 7.53038 19.871 9.24549 19.871 11C19.871 13.3527 18.9364 15.6091 17.2727 17.2727C15.6091 18.9363 13.3527 19.871 11 19.871Z" fill="#BABBC2"/>
<path d="M10.2896 11.9808C10.0943 12.176 9.77775 12.176 9.58249 11.9808L7.8483 10.2466C7.65304 10.0513 7.33646 10.0513 7.1412 10.2466L6.34379 11.044C6.14853 11.2393 6.14853 11.5559 6.34379 11.7511L9.18378 14.5911C9.38338 14.7905 9.65394 14.9024 9.93604 14.9024C10.2181 14.9024 10.4887 14.7905 10.6883 14.5911L16.0122 9.26725C16.2074 9.07199 16.2074 8.7554 16.0122 8.56014L15.2148 7.76273C15.0195 7.56747 14.7029 7.56747 14.5076 7.76273L10.2896 11.9808Z" fill="#BABBC2"/>
</svg>
