<svg width="16" height="20" viewBox="0 0 16 20" fill="none" xmlns="http://www.w3.org/2000/svg">
<path d="M15 8.80772V17.328C15 17.885 14.7788 18.4191 14.3849 18.813C13.9911 19.2068 13.457 19.428 12.9 19.428H3.1C2.54305 19.428 2.0089 19.2068 1.61508 18.813C1.22125 18.4191 1 17.885 1 17.328V3.32803C1 2.77107 1.22125 2.23693 1.61508 1.8431C2.0089 1.44928 2.54305 1.22803 3.1 1.22803H7.42031C7.79149 1.22808 8.14745 1.37553 8.40994 1.63796L14.5901 7.81809C14.8525 8.08058 14.9999 8.43654 15 8.80772Z" stroke="#292826" stroke-linejoin="round"/>
<path d="M8 1.57812V6.82812C8 7.19943 8.1475 7.55552 8.41005 7.81807C8.6726 8.08063 9.0287 8.22812 9.4 8.22812H14.65" stroke="#292826" stroke-linecap="round" stroke-linejoin="round"/>
<path d="M4.5 11.728H11.5" stroke="#292826" stroke-linecap="round" stroke-linejoin="round"/>
<path d="M4.5 15.228H11.5" stroke="#292826" stroke-linecap="round" stroke-linejoin="round"/>
</svg>
