<svg width="23" height="20" viewBox="0 0 23 20" fill="none" xmlns="http://www.w3.org/2000/svg">
<path d="M22.4914 1.95021C22.4915 1.77357 22.4448 1.60007 22.3561 1.44735C22.2673 1.29464 22.1397 1.16817 21.9862 1.08084C21.8326 0.993502 21.6587 0.948416 21.4821 0.95017C21.3054 0.951925 21.1324 1.00046 20.9807 1.09083C20.3954 1.43921 19.7652 1.70601 19.1077 1.88383C18.1686 1.07806 16.971 0.637129 15.7337 0.641636C14.3762 0.643198 13.0726 1.17223 12.0979 2.11702C11.1232 3.06181 10.5539 4.3484 10.51 5.70512C7.83402 5.27838 5.40868 3.88164 3.69649 1.78126C3.59333 1.65609 3.46158 1.55757 3.31235 1.494C3.16313 1.43043 3.0008 1.40368 2.83907 1.41601C2.67743 1.42932 2.52147 1.4818 2.38467 1.56892C2.24786 1.65603 2.13434 1.77516 2.05391 1.91601C1.64144 2.63582 1.40454 3.44276 1.36246 4.27131C1.32038 5.09986 1.4743 5.92666 1.81172 6.68456L1.80977 6.68651C1.65812 6.77991 1.53296 6.91066 1.44628 7.06625C1.35959 7.22185 1.31427 7.39708 1.31465 7.57519C1.31282 7.72211 1.32163 7.86898 1.34102 8.01464C1.44316 9.2729 2.00081 10.4507 2.90938 11.3271C2.84775 11.4446 2.81013 11.5731 2.79873 11.7052C2.78732 11.8373 2.80237 11.9704 2.84297 12.0967C3.23909 13.3308 4.08147 14.3727 5.20528 15.0185C4.06352 15.46 2.8307 15.614 1.61543 15.4668C1.39051 15.4386 1.16266 15.4876 0.969281 15.6059C0.775899 15.7242 0.62846 15.9047 0.551148 16.1178C0.473837 16.3309 0.471244 16.5639 0.543794 16.7787C0.616345 16.9935 0.759731 17.1772 0.950433 17.2998C3.04053 18.646 5.47411 19.3617 7.9602 19.3613C10.7795 19.393 13.5302 18.4921 15.7844 16.7988C18.0387 15.1054 19.6702 12.7145 20.425 9.99801C20.7781 8.81464 20.9583 7.58648 20.9602 6.35157C20.9602 6.28614 20.9602 6.21876 20.9592 6.15138C21.4813 5.58831 21.8858 4.92668 22.1489 4.20527C22.412 3.48387 22.5284 2.7172 22.4914 1.95021ZM19.1848 5.16212C19.0196 5.35746 18.936 5.60891 18.9514 5.86427C18.9611 6.02927 18.9602 6.19527 18.9602 6.35157C18.9581 7.39511 18.8052 8.43287 18.5061 9.43263C17.8896 11.744 16.5152 13.7817 14.6031 15.2192C12.6911 16.6568 10.3519 17.4111 7.9602 17.3613C7.10108 17.3616 6.24492 17.2606 5.40942 17.0606C6.47483 16.7172 7.47101 16.1879 8.3518 15.4971C8.51403 15.3693 8.63275 15.1945 8.69169 14.9967C8.75063 14.7988 8.74688 14.5875 8.68098 14.3918C8.61507 14.1961 8.49023 14.0257 8.32358 13.9038C8.15694 13.7819 7.95665 13.7145 7.7502 13.7109C6.91903 13.698 6.12533 13.363 5.53633 12.7764C5.68575 12.7481 5.83419 12.7129 5.98165 12.6709C6.19766 12.6094 6.3867 12.477 6.51831 12.295C6.64993 12.1131 6.71647 11.8921 6.70723 11.6677C6.69798 11.4433 6.61348 11.2285 6.46734 11.058C6.32119 10.8874 6.12191 10.7711 5.90157 10.7275C5.41911 10.6323 4.96512 10.427 4.57489 10.1277C4.18466 9.82845 3.8687 9.44321 3.65157 9.00196C3.8323 9.02662 4.01418 9.04194 4.19649 9.04786C4.41308 9.05113 4.62509 8.98543 4.80187 8.86026C4.97865 8.73509 5.11104 8.55694 5.17989 8.35157C5.24587 8.14433 5.24248 7.92123 5.17022 7.7161C5.09797 7.51096 4.96079 7.33499 4.7795 7.21485C4.33965 6.92182 3.97935 6.52427 3.73086 6.0578C3.48237 5.59134 3.35346 5.07052 3.35567 4.54201C3.35567 4.47561 3.35762 4.4092 3.36153 4.34377C5.60279 6.43402 8.50985 7.66621 11.5705 7.82326C11.725 7.82934 11.8789 7.80024 12.0205 7.73816C12.1621 7.67607 12.2877 7.58262 12.3879 7.46486C12.4871 7.34596 12.5573 7.20566 12.5931 7.05501C12.6288 6.90437 12.6291 6.74748 12.5939 6.5967C12.5367 6.35806 12.5076 6.11357 12.507 5.86818C12.5079 5.01271 12.8482 4.19254 13.4531 3.58764C14.058 2.98274 14.8781 2.64251 15.7336 2.64161C16.1737 2.64043 16.6093 2.7305 17.0129 2.90615C17.4165 3.0818 17.7792 3.3392 18.0783 3.66212C18.1937 3.7862 18.3388 3.87871 18.5 3.93085C18.6612 3.98299 18.833 3.99303 18.9992 3.96001C19.41 3.88006 19.8149 3.7724 20.2111 3.63775C19.9409 4.19072 19.5955 4.70369 19.1848 5.16212Z" fill="#1D2433"/>
</svg>
