<svg width="21" height="21" viewBox="0 0 21 21" fill="none" xmlns="http://www.w3.org/2000/svg">
<path d="M15.1 13.0001C14.9 12.9001 13.6 12.3001 13.4 12.2001C13.2 12.1001 13 12.1001 12.8 12.3001C12.6 12.5001 12.2 13.1001 12 13.3001C11.9 13.5001 11.7 13.5001 11.5 13.4001C10.8 13.1001 10.1 12.7001 9.5 12.2001C9 11.7001 8.5 11.1001 8.1 10.5001C8 10.3001 8.1 10.1001 8.2 10.0001C8.3 9.9001 8.4 9.7001 8.6 9.6001C8.7 9.5001 8.8 9.3001 8.8 9.2001C8.9 9.1001 8.9 8.9001 8.8 8.8001C8.7 8.7001 8.2 7.5001 8 7.0001C7.9 6.3001 7.7 6.3001 7.5 6.3001C7.4 6.3001 7.2 6.3001 7 6.3001C6.8 6.3001 6.5 6.5001 6.4 6.6001C5.8 7.2001 5.5 7.9001 5.5 8.7001C5.6 9.6001 5.9 10.5001 6.5 11.3001C7.6 12.9001 9 14.2001 10.7 15.0001C11.2 15.2001 11.6 15.4001 12.1 15.5001C12.6 15.7001 13.1 15.7001 13.7 15.6001C14.4 15.5001 15 15.0001 15.4 14.4001C15.6 14.0001 15.6 13.6001 15.5 13.2001C15.5 13.2001 15.3 13.1001 15.1 13.0001ZM17.6 3.9001C13.7 9.77516e-05 7.4 9.77516e-05 3.5 3.9001C0.3 7.1001 -0.3 12.0001 1.9 15.9001L0.5 21.0001L5.8 19.6001C7.3 20.4001 8.9 20.8001 10.5 20.8001C16 20.8001 20.4 16.4001 20.4 10.9001C20.5 8.3001 19.4 5.8001 17.6 3.9001ZM14.9 17.9001C13.6 18.7001 12.1 19.2001 10.5 19.2001C9 19.2001 7.6 18.8001 6.3 18.1001L6 17.9001L2.9 18.7001L3.7 15.7001L3.5 15.4001C1.1 11.4001 2.3 6.4001 6.2 3.9001C10.1 1.4001 15.1 2.7001 17.5 6.5001C19.9 10.4001 18.8 15.5001 14.9 17.9001Z" fill="#1D2433"/>
</svg>
